<svg xmlns="http://www.w3.org/2000/svg" width="37.5" height="30" viewBox="0 0 37.5 30">
  <g id="Group_1531" data-name="Group 1531" transform="translate(-389.953 -674.152)">
    <g id="Group_1521" data-name="Group 1521" transform="translate(389.953 665.89)">
      <g id="Group_1525" data-name="Group 1525">
        <path id="user-plus-solid" d="M5.625,7.5a7.5,7.5,0,1,1,7.5,7.5,7.5,7.5,0,0,1-7.5-7.5ZM0,28.26A10.445,10.445,0,0,1,10.447,17.813H15.8A10.445,10.445,0,0,1,26.25,28.26,1.74,1.74,0,0,1,24.51,30H1.74A1.74,1.74,0,0,1,0,28.26Zm29.531-9.979v-3.75h-3.75a1.406,1.406,0,1,1,0-2.812h3.75V7.969a1.406,1.406,0,0,1,2.812,0v3.75h3.75a1.406,1.406,0,1,1,0,2.813h-3.75v3.75a1.406,1.406,0,1,1-2.812,0Z" transform="translate(0 8.262)" fill="#c41f41"/>
      </g>
    </g>
  </g>
</svg>
