<svg xmlns="http://www.w3.org/2000/svg" width="39.375" height="35" viewBox="0 0 39.375 35">
  <g id="Group_1521" data-name="Group 1521" transform="translate(0 -5.262)">
    <path id="hand-holding-dollar-solid" d="M21.328,1.641v.718c.438.082.861.185,1.244.287a1.642,1.642,0,1,1-.848,3.172,8.656,8.656,0,0,0-2.064-.342,2.756,2.756,0,0,0-1.326.3.783.783,0,0,0-.239.205.326.326,0,0,0-.048.191v.041a.781.781,0,0,0,.226.178,8.929,8.929,0,0,0,1.873.69l.062.021h0A10.724,10.724,0,0,1,22.8,8.148a3.592,3.592,0,0,1,1.8,3.069,3.759,3.759,0,0,1-1.825,3.315,5.088,5.088,0,0,1-1.456.6v.725a1.641,1.641,0,0,1-3.281,0V15.08c-.649-.157-1.244-.362-1.75-.533-.144-.048-.28-.1-.41-.137a1.643,1.643,0,1,1,1.039-3.117l.5.171a8.286,8.286,0,0,0,2.317.567,2.482,2.482,0,0,0,1.313-.28.634.634,0,0,0,.219-.2.46.46,0,0,0,.055-.28v-.014c0-.068,0-.144-.273-.314a8.313,8.313,0,0,0-1.853-.7l-.13-.041a10.871,10.871,0,0,1-2.488-.984A3.456,3.456,0,0,1,14.759,6.2a3.682,3.682,0,0,1,1.894-3.24A5.331,5.331,0,0,1,18.033,2.4l.014-.759a1.641,1.641,0,0,1,3.281,0ZM38.842,22.989a2.731,2.731,0,0,1-.581,3.821l-8.654,6.378A9.305,9.305,0,0,1,24.09,35H2.187A2.185,2.185,0,0,1,0,32.812V28.437A2.185,2.185,0,0,1,2.187,26.25H4.7l3.069-2.461a8.732,8.732,0,0,1,5.469-1.914H24.062a2.187,2.187,0,0,1,0,4.375H18.594a1.094,1.094,0,1,0,0,2.187h8.244l8.183-6.029A2.731,2.731,0,0,1,38.842,22.989ZM13.234,26.25Z" transform="translate(0 5.262)" fill="#c41f41"/>
  </g>
</svg>
