<svg xmlns="http://www.w3.org/2000/svg" xmlns:xlink="http://www.w3.org/1999/xlink" width="47.805" height="35" viewBox="0 0 47.805 35">
  <defs>
    <clipPath id="clip-path">
      <rect id="Rectangle_254" data-name="Rectangle 254" width="47.805" height="35" fill="#c41f41"/>
    </clipPath>
  </defs>
  <g id="Mask_Group_4" data-name="Mask Group 4" clip-path="url(#clip-path)">
    <path id="people-group-solid" d="M5.378,6.983a4.183,4.183,0,1,1,4.183,4.183A4.183,4.183,0,0,1,5.378,6.983Zm-.6,11.779a4.774,4.774,0,0,0,0,6.319V18.762ZM15.566,15.08a10.747,10.747,0,0,0-1.225,14.8v1.606a2.388,2.388,0,0,1-2.39,2.39H7.171a2.388,2.388,0,0,1-2.39-2.39v-2A8.366,8.366,0,0,1,8.366,13.556h2.39a8.33,8.33,0,0,1,4.81,1.516Zm17.9,16.4V29.877a10.756,10.756,0,0,0-1.225-14.8,8.33,8.33,0,0,1,4.81-1.516h2.39a8.366,8.366,0,0,1,3.585,15.925v2a2.388,2.388,0,0,1-2.39,2.39h-4.78A2.388,2.388,0,0,1,33.463,31.483Zm.6-24.5a4.183,4.183,0,1,1,4.183,4.183,4.183,4.183,0,0,1-4.183-4.183Zm8.963,11.779v6.327a4.774,4.774,0,0,0,0-6.319ZM23.9,2.8a4.78,4.78,0,1,1-4.78,4.78A4.78,4.78,0,0,1,23.9,2.8ZM17.927,23.117a4.747,4.747,0,0,0,1.2,3.16V19.95a4.747,4.747,0,0,0-1.2,3.16Zm10.756-3.16v6.327a4.774,4.774,0,0,0,0-6.319Zm4.78,3.16a8.37,8.37,0,0,1-4.78,7.559v3.2a2.388,2.388,0,0,1-2.39,2.39h-4.78a2.388,2.388,0,0,1-2.39-2.39v-3.2a8.366,8.366,0,0,1,3.585-15.925H25.1A8.362,8.362,0,0,1,33.463,23.117Z" transform="translate(0 -2.032)" fill="#c41f41"/>
  </g>
</svg>
