<svg xmlns="http://www.w3.org/2000/svg" xmlns:xlink="http://www.w3.org/1999/xlink" width="208.778" height="176.87" viewBox="0 0 208.778 176.87">
  <defs>
    <clipPath id="clip-path">
      <rect id="Rectangle_378" data-name="Rectangle 378" width="208.778" height="176.87" fill="none"/>
    </clipPath>
  </defs>
  <g id="Group_1845" data-name="Group 1845" clip-path="url(#clip-path)">
    <path id="Path_884" data-name="Path 884" d="M227.533,116.668A3.556,3.556,0,0,1,224,120.241H60.275a3.556,3.556,0,0,1-3.536-3.573V8.118a3.556,3.556,0,0,1,3.536-3.573H224a3.556,3.556,0,0,1,3.536,3.573Z" transform="translate(-36.725 -2.942)" fill="#fff"/>
    <path id="Path_885" data-name="Path 885" d="M221.054,118.9H57.331a5.164,5.164,0,0,1-5.139-5.177V5.175A5.164,5.164,0,0,1,57.331,0H221.054a5.164,5.164,0,0,1,5.139,5.176v108.55a5.164,5.164,0,0,1-5.139,5.177M57.331,3.206A1.953,1.953,0,0,0,55.4,5.175v108.55a1.953,1.953,0,0,0,1.932,1.97H221.054a1.953,1.953,0,0,0,1.932-1.97V5.175a1.953,1.953,0,0,0-1.932-1.969Z" transform="translate(-33.782 0.001)" fill="#d8002e"/>
    <path id="Path_886" data-name="Path 886" d="M230.225,119.457a3.376,3.376,0,0,1-3.383,3.368H69.725a3.376,3.376,0,0,1-3.383-3.368V17.131a3.377,3.377,0,0,1,3.383-3.368H226.842a3.377,3.377,0,0,1,3.383,3.368Z" transform="translate(-42.941 -8.908)" fill="#d8002e"/>
    <rect id="Rectangle_376" data-name="Rectangle 376" width="123.674" height="1.796" transform="translate(41.903 89.811)" fill="#fff"/>
    <path id="Path_887" data-name="Path 887" d="M152.853,113.088H141.786l-.713,4.092h6.417l-.744,4.216h-6.417l-1.612,9.145h-4.34l3.813-21.7H153.6Z" transform="translate(-86.977 -70.448)" fill="#fff"/>
    <path id="Path_888" data-name="Path 888" d="M197.592,129.453l-1.829,10.416h-4.278l.217-1.085a5.055,5.055,0,0,1-3.5,1.426c-2.883,0-5.487-1.519-5.487-5.053,0-3.658,2.635-6.138,6.727-6.138a10.918,10.918,0,0,1,3.843.651l.093-.651a3.184,3.184,0,0,0,.031-.527c0-1.147-.775-1.705-2.821-1.705a8.857,8.857,0,0,0-3.689.837l-1.116-3.038a11.643,11.643,0,0,1,5.363-1.333c3.844,0,6.572,1.426,6.572,4.836a7.177,7.177,0,0,1-.124,1.364m-7.967,2.914a2.261,2.261,0,0,0-2.542,2.325c0,1.24.806,1.891,2.356,1.891a3.7,3.7,0,0,0,2.883-1.488l.372-2.046a6.322,6.322,0,0,0-3.068-.682" transform="translate(-118.262 -79.777)" fill="#fff"/>
    <path id="Path_889" data-name="Path 889" d="M237.942,128.648a3.669,3.669,0,0,0-2.511-1.116c-1.426,0-2.511.5-3.1,3.906l-1.488,8.432h-4.278l2.883-16.275h4.278l-.186,1.085a4.1,4.1,0,0,1,3.131-1.426,4,4,0,0,1,3.162,1.364Z" transform="translate(-146.647 -79.777)" fill="#fff"/>
    <path id="Path_890" data-name="Path 890" d="M284.321,130.694l-1.612,9.176h-4.247l1.55-8.8a10.428,10.428,0,0,0,.155-1.55c0-1.674-.9-2.232-2.294-2.232-1.55,0-2.6,1.116-3.038,3.689l-1.55,8.9h-4.309l1.55-8.8a10.054,10.054,0,0,0,.155-1.519c0-1.7-.9-2.263-2.294-2.263-1.55,0-2.6,1.116-3.038,3.689l-1.55,8.9h-4.278l2.852-16.275h4.278l-.186,1.085a5.084,5.084,0,0,1,3.5-1.426,4.8,4.8,0,0,1,4.371,2.077,7.931,7.931,0,0,1,5.208-2.077c3.317,0,4.991,1.829,4.991,5.146a12.391,12.391,0,0,1-.217,2.294" transform="translate(-167.978 -79.777)" fill="#fff"/>
    <path id="Path_891" data-name="Path 891" d="M137.778,191.8a4.728,4.728,0,0,1,2.294,4.154c0,4.712-3.534,7.316-8.618,7.316H121.286l3.844-21.7h9.083c4.371,0,6.727,2.046,6.727,5.053a5.685,5.685,0,0,1-3.162,5.177m-5.487,1.736h-5.022l-.992,5.611h5.8c2.077,0,3.5-1.116,3.5-3.131,0-1.674-1.054-2.48-3.286-2.48m1.426-7.967h-5.053l-.744,4.124h5.766c1.674,0,2.728-.806,2.728-2.387,0-1.116-.806-1.736-2.7-1.736" transform="translate(-78.504 -117.525)" fill="#fff"/>
    <path id="Path_892" data-name="Path 892" d="M179.593,206.127l1.612-9.176h4.278l-1.55,8.8a8.562,8.562,0,0,0-.124,1.426c0,1.581.744,2.356,2.263,2.356,1.7,0,2.821-.992,3.286-3.689l1.55-8.9h4.278l-2.852,16.275h-4.278l.186-1.085a5.237,5.237,0,0,1-3.689,1.426c-3.5,0-5.177-1.8-5.177-5.053a17.08,17.08,0,0,1,.217-2.387" transform="translate(-116.103 -127.479)" fill="#fff"/>
    <path id="Path_893" data-name="Path 893" d="M234.782,201.378a3.669,3.669,0,0,0-2.511-1.116c-1.426,0-2.511.5-3.1,3.906l-1.488,8.432H223.4l2.883-16.275h4.278l-.186,1.085a4.106,4.106,0,0,1,3.131-1.426,4,4,0,0,1,3.162,1.364Z" transform="translate(-144.601 -126.853)" fill="#fff"/>
    <path id="Path_894" data-name="Path 894" d="M271.305,205.843H261.7c-.248,2.232,1.55,3.069,3.038,3.069a5.677,5.677,0,0,0,3.255-1.085l2.077,2.976a9.1,9.1,0,0,1-5.8,2.139c-4.185,0-6.851-2.666-6.851-7.068,0-5.58,3.751-9.889,8.463-9.889,4.092,0,5.921,2.976,5.921,6.6a12.223,12.223,0,0,1-.5,3.255m-6.045-6.138c-1.55,0-2.511,1.271-3.007,2.914h5.518a2.391,2.391,0,0,0-2.511-2.914" transform="translate(-166.616 -126.853)" fill="#fff"/>
    <path id="Path_895" data-name="Path 895" d="M313.953,202.184,312.124,212.6h-4.278l.217-1.085a5.053,5.053,0,0,1-3.5,1.426c-2.883,0-5.487-1.519-5.487-5.052,0-3.658,2.635-6.138,6.727-6.138a10.921,10.921,0,0,1,3.844.651l.093-.651a3.188,3.188,0,0,0,.031-.527c0-1.147-.775-1.7-2.821-1.7a8.853,8.853,0,0,0-3.689.837l-1.116-3.038a11.64,11.64,0,0,1,5.363-1.333c3.844,0,6.572,1.426,6.572,4.836a7.215,7.215,0,0,1-.124,1.364m-7.967,2.914a2.261,2.261,0,0,0-2.542,2.325c0,1.24.806,1.891,2.356,1.891a3.7,3.7,0,0,0,2.883-1.489l.372-2.046a6.324,6.324,0,0,0-3.069-.682" transform="translate(-193.578 -126.853)" fill="#fff"/>
    <path id="Path_896" data-name="Path 896" d="M345.691,206.127l1.612-9.176h4.278l-1.55,8.8a8.6,8.6,0,0,0-.124,1.426c0,1.581.744,2.356,2.263,2.356,1.7,0,2.82-.992,3.286-3.689l1.55-8.9h4.278l-2.852,16.275h-4.277l.186-1.085a5.236,5.236,0,0,1-3.689,1.426c-3.5,0-5.177-1.8-5.177-5.053a17.031,17.031,0,0,1,.217-2.387" transform="translate(-223.612 -127.479)" fill="#fff"/>
    <path id="Path_897" data-name="Path 897" d="M331.486,269.672h-2.127L328.3,275.68h-1.5l1.058-6.008h-2.127l.256-1.475h5.751Z" transform="translate(-210.835 -173.593)" fill="#fff"/>
    <path id="Path_898" data-name="Path 898" d="M344.432,276.566h-3.314a.944.944,0,0,0,1.048,1.059,1.957,1.957,0,0,0,1.123-.374l.716,1.026a3.137,3.137,0,0,1-2,.738,2.227,2.227,0,0,1-2.362-2.437,3.159,3.159,0,0,1,2.918-3.41,2.007,2.007,0,0,1,2.042,2.277,4.208,4.208,0,0,1-.171,1.122m-2.084-2.116c-.534,0-.866.438-1.037,1h1.9a.824.824,0,0,0-.866-1" transform="translate(-219.838 -176.81)" fill="#fff"/>
    <path id="Path_899" data-name="Path 899" d="M360.839,275.732l-.556,3.164h-1.475l.535-3.036a3.021,3.021,0,0,0,.042-.492c0-.545-.256-.813-.78-.813-.587,0-.972.342-1.133,1.272l-.534,3.068h-1.475l.983-5.612h1.475l-.064.374a1.807,1.807,0,0,1,1.272-.492,1.568,1.568,0,0,1,1.785,1.743,5.889,5.889,0,0,1-.075.823" transform="translate(-230.077 -176.81)" fill="#fff"/>
    <path id="Path_900" data-name="Path 900" d="M378.416,275.732l-.556,3.164h-1.475l.535-3.036a2.99,2.99,0,0,0,.042-.492c0-.545-.256-.813-.78-.813-.588,0-.973.342-1.133,1.272l-.534,3.068h-1.475l.983-5.612H375.5l-.064.374a1.807,1.807,0,0,1,1.272-.492,1.568,1.568,0,0,1,1.785,1.743,5.893,5.893,0,0,1-.075.823" transform="translate(-241.454 -176.81)" fill="#fff"/>
    <path id="Path_901" data-name="Path 901" d="M395.768,276.566h-3.314a.944.944,0,0,0,1.048,1.059,1.957,1.957,0,0,0,1.123-.374l.716,1.026a3.137,3.137,0,0,1-2,.738,2.227,2.227,0,0,1-2.362-2.437,3.159,3.159,0,0,1,2.918-3.41,2.007,2.007,0,0,1,2.042,2.277,4.209,4.209,0,0,1-.171,1.122m-2.084-2.116c-.534,0-.866.438-1.037,1h1.9a.824.824,0,0,0-.866-1" transform="translate(-253.065 -176.81)" fill="#fff"/>
    <path id="Path_902" data-name="Path 902" d="M410.736,275.005a3.494,3.494,0,0,0-1.764-.577c-.417,0-.588.15-.588.353,0,.182.086.3,1.037.695s1.561.823,1.561,1.679c0,1.3-.994,1.86-2.245,1.86a4.2,4.2,0,0,1-2.576-.844l.695-1.069a3.57,3.57,0,0,0,2.042.652c.385,0,.6-.171.6-.439,0-.214-.15-.353-.706-.566-1.272-.5-1.892-.9-1.892-1.764,0-1.165.791-1.817,2.181-1.817a4.373,4.373,0,0,1,2.331.673Z" transform="translate(-262.892 -176.81)" fill="#fff"/>
    <path id="Path_903" data-name="Path 903" d="M426.5,275.005a3.5,3.5,0,0,0-1.764-.577c-.417,0-.588.15-.588.353,0,.182.086.3,1.037.695s1.561.823,1.561,1.679c0,1.3-.994,1.86-2.245,1.86a4.2,4.2,0,0,1-2.576-.844l.7-1.069a3.568,3.568,0,0,0,2.041.652c.384,0,.6-.171.6-.439,0-.214-.15-.353-.705-.566-1.272-.5-1.892-.9-1.892-1.764,0-1.165.791-1.817,2.18-1.817a4.372,4.372,0,0,1,2.331.673Z" transform="translate(-273.092 -176.81)" fill="#fff"/>
    <path id="Path_904" data-name="Path 904" d="M443.255,276.566h-3.314a.944.944,0,0,0,1.048,1.059,1.957,1.957,0,0,0,1.123-.374l.716,1.026a3.137,3.137,0,0,1-2,.738,2.227,2.227,0,0,1-2.363-2.437,3.159,3.159,0,0,1,2.919-3.41,2.007,2.007,0,0,1,2.042,2.277,4.209,4.209,0,0,1-.171,1.122m-2.085-2.116c-.534,0-.866.438-1.037,1h1.9a.824.824,0,0,0-.866-1" transform="translate(-283.802 -176.81)" fill="#fff"/>
    <path id="Path_905" data-name="Path 905" d="M459.437,276.566h-3.314a.944.944,0,0,0,1.048,1.059,1.957,1.957,0,0,0,1.123-.374l.716,1.026a3.137,3.137,0,0,1-2,.738,2.227,2.227,0,0,1-2.363-2.437,3.159,3.159,0,0,1,2.919-3.41,2.007,2.007,0,0,1,2.042,2.277,4.208,4.208,0,0,1-.171,1.122m-2.085-2.116c-.534,0-.866.438-1.037,1h1.9a.824.824,0,0,0-.866-1" transform="translate(-294.276 -176.81)" fill="#fff"/>
    <path id="Path_906" data-name="Path 906" d="M401.981,203.36a2.7,2.7,0,1,1,2.7-2.7,2.65,2.65,0,0,1-2.7,2.7m0-4.969a2.267,2.267,0,1,0,2.267,2.267,2.224,2.224,0,0,0-2.267-2.267m.606,2.5.606,1.189H402.6l-.576-1.137h-.568v1.137h-.5v-2.948h1.295a.864.864,0,0,1,.965.89.838.838,0,0,1-.629.868m-.352-1.272h-.778v.838h.778c.269,0,.471-.127.471-.419a.416.416,0,0,0-.471-.419" transform="translate(-258.438 -128.13)" fill="#fff"/>
    <path id="Path_907" data-name="Path 907" d="M2.089,395.515a.193.193,0,0,1-.218-.218V385.284H.708a.193.193,0,0,1-.218-.218V384.6a.193.193,0,0,1,.218-.218H3.934a.193.193,0,0,1,.218.218v.465a.193.193,0,0,1-.218.218H2.772V395.3a.193.193,0,0,1-.218.218Z" transform="translate(-0.317 -248.796)" fill="#fff"/>
    <path id="Path_908" data-name="Path 908" d="M2.089,395.515a.193.193,0,0,1-.218-.218V385.284H.708a.193.193,0,0,1-.218-.218V384.6a.193.193,0,0,1,.218-.218H3.934a.193.193,0,0,1,.218.218v.465a.193.193,0,0,1-.218.218H2.772V395.3a.193.193,0,0,1-.218.218Z" transform="translate(-0.317 -248.796)" fill="none" stroke="#fff" stroke-miterlimit="10" stroke-width="0.981"/>
    <path id="Path_909" data-name="Path 909" d="M16.587,395.515a.193.193,0,0,1-.218-.218v-5.013H14.741V395.3a.193.193,0,0,1-.218.218h-.465a.193.193,0,0,1-.218-.218V384.6a.193.193,0,0,1,.218-.218h.465a.193.193,0,0,1,.218.218v4.781h1.628V384.6a.193.193,0,0,1,.218-.218h.465a.193.193,0,0,1,.218.218v10.7a.193.193,0,0,1-.218.218Z" transform="translate(-8.958 -248.796)" fill="#fff"/>
    <path id="Path_910" data-name="Path 910" d="M16.587,395.515a.193.193,0,0,1-.218-.218v-5.013H14.741V395.3a.193.193,0,0,1-.218.218h-.465a.193.193,0,0,1-.218-.218V384.6a.193.193,0,0,1,.218-.218h.465a.193.193,0,0,1,.218.218v4.781h1.628V384.6a.193.193,0,0,1,.218-.218h.465a.193.193,0,0,1,.218.218v10.7a.193.193,0,0,1-.218.218Z" transform="translate(-8.958 -248.796)" fill="none" stroke="#fff" stroke-miterlimit="10" stroke-width="0.981"/>
    <path id="Path_911" data-name="Path 911" d="M28.027,395.515a.193.193,0,0,1-.218-.218V384.6a.193.193,0,0,1,.218-.218h2.529a.193.193,0,0,1,.218.218v.465a.193.193,0,0,1-.218.218H28.71v4.17h1.744a.193.193,0,0,1,.218.218v.465a.193.193,0,0,1-.218.218H28.71v4.258h1.846a.193.193,0,0,1,.218.218v.465a.193.193,0,0,1-.218.218Z" transform="translate(-18 -248.796)" fill="#fff"/>
    <path id="Path_912" data-name="Path 912" d="M28.027,395.515a.193.193,0,0,1-.218-.218V384.6a.193.193,0,0,1,.218-.218h2.529a.193.193,0,0,1,.218.218v.465a.193.193,0,0,1-.218.218H28.71v4.17h1.744a.193.193,0,0,1,.218.218v.465a.193.193,0,0,1-.218.218H28.71v4.258h1.846a.193.193,0,0,1,.218.218v.465a.193.193,0,0,1-.218.218Z" transform="translate(-18 -248.796)" fill="none" stroke="#fff" stroke-miterlimit="10" stroke-width="0.981"/>
    <path id="Path_913" data-name="Path 913" d="M50.412,416.529a.634.634,0,0,1-.686-.6l-3.862-31.583a.555.555,0,0,1,.6-.686h1.373a.6.6,0,0,1,.643.6l2.789,28.064L54.1,384.26a.6.6,0,0,1,.643-.6h1.373a.554.554,0,0,1,.6.686L52.9,415.928a.634.634,0,0,1-.686.6Z" transform="translate(-29.682 -248.327)" fill="#fff"/>
    <path id="Path_914" data-name="Path 914" d="M79.936,411.958c0-4.119,1.8-5.063,4.12-5.063s4.119.944,4.119,5.063v14.891c0,4.077-1.8,5.063-4.119,5.063s-4.12-.987-4.12-5.063Zm5.664-.3c0-1.673-.558-2.4-1.545-2.4s-1.545.729-1.545,2.4v15.491c0,1.673.558,2.4,1.545,2.4s1.545-.729,1.545-2.4Z" transform="translate(-51.739 -263.367)" fill="#fff"/>
    <path id="Path_915" data-name="Path 915" d="M111.186,388.038a1.931,1.931,0,1,1-1.931,1.931,1.923,1.923,0,0,1,1.931-1.931m-.644,31.325a.569.569,0,0,1-.644-.644V395.677a.569.569,0,0,1,.644-.644h1.288a.569.569,0,0,1,.644.644V418.72a.569.569,0,0,1-.644.644Z" transform="translate(-70.716 -251.162)" fill="#fff"/>
    <path id="Path_916" data-name="Path 916" d="M131.828,422.685a.569.569,0,0,1,.644-.644h1.287a.569.569,0,0,1,.644.644v4.162c0,4.077-1.8,5.064-4.119,5.064s-4.12-.987-4.12-5.064v-14.89c0-4.12,1.8-5.064,4.12-5.064s4.119.944,4.119,5.064v3.562a.569.569,0,0,1-.644.643h-1.287a.569.569,0,0,1-.644-.643v-3.862c0-1.673-.558-2.4-1.545-2.4s-1.545.729-1.545,2.4v15.491c0,1.673.558,2.4,1.545,2.4s1.545-.729,1.545-2.4Z" transform="translate(-81.661 -263.367)" fill="#fff"/>
    <path id="Path_917" data-name="Path 917" d="M162,424.188a.569.569,0,0,1,.644-.644h1.288a.569.569,0,0,1,.643.644v2.661c0,4.077-1.8,5.063-4.119,5.063s-4.12-.987-4.12-5.063V411.958c0-4.119,1.8-5.063,4.12-5.063s4.119.944,4.119,5.063v7.767a.569.569,0,0,1-.643.644h-5.021v6.78c0,1.673.557,2.4,1.545,2.4s1.545-.729,1.545-2.4Zm0-12.53c0-1.673-.558-2.4-1.545-2.4s-1.545.729-1.545,2.4v6.394H162Z" transform="translate(-101.188 -263.367)" fill="#fff"/>
    <path id="Path_918" data-name="Path 918" d="M210.449,435.68a5.627,5.627,0,0,1-1.149,1.149,2.484,2.484,0,0,1-1.537.512,2,2,0,0,1-.927-.235,1.793,1.793,0,0,1-.734-.706q-.194.443-.5,1.01a9.629,9.629,0,0,1-.72,1.135,7.067,7.067,0,0,1-.927,1.038,5.124,5.124,0,0,1-1.094.775,2.143,2.143,0,0,1-.831.222q-1,0-1-.886a3.151,3.151,0,0,1,.18-1.025,6.305,6.305,0,0,1,.456-1.024,9.579,9.579,0,0,1,.6-.941,5.883,5.883,0,0,1,.6-.72,5.779,5.779,0,0,1,1.329-1.079,3.838,3.838,0,0,1,1.606-.526,4.586,4.586,0,0,1,.166-.512.506.506,0,0,1,.388-.346l.277-.055a.979.979,0,0,0,.249-.083.156.156,0,0,1,.166-.014q.083.042.028.152a2.309,2.309,0,0,0-.29.775,5.059,5.059,0,0,0-.1,1.024,2.505,2.505,0,0,0,.291,1.274,1.072,1.072,0,0,0,1.011.5,2.014,2.014,0,0,0,1.3-.471,5.047,5.047,0,0,0,.969-1.024c.037-.092.1-.12.18-.083s.087.092.014.166m-4.568.194a4.242,4.242,0,0,1-.083-.581c-.019-.222-.027-.434-.027-.637,0-.092-.037-.138-.111-.138a1.2,1.2,0,0,0-.637.207,3.553,3.553,0,0,0-.664.554,8.657,8.657,0,0,0-.665.789,9.908,9.908,0,0,0-.609.914,10.159,10.159,0,0,0-.651,1.315,3.154,3.154,0,0,0-.263,1.343.924.924,0,0,0,.069.36.306.306,0,0,0,.319.166,1.57,1.57,0,0,0,1.024-.526,8.261,8.261,0,0,0,1.052-1.232,9.93,9.93,0,0,0,.845-1.426,4.246,4.246,0,0,0,.4-1.108" transform="translate(-130.123 -280.491)" fill="#fff"/>
    <path id="Path_919" data-name="Path 919" d="M210.449,435.68a5.627,5.627,0,0,1-1.149,1.149,2.484,2.484,0,0,1-1.537.512,2,2,0,0,1-.927-.235,1.793,1.793,0,0,1-.734-.706q-.194.443-.5,1.01a9.629,9.629,0,0,1-.72,1.135,7.067,7.067,0,0,1-.927,1.038,5.124,5.124,0,0,1-1.094.775,2.143,2.143,0,0,1-.831.222q-1,0-1-.886a3.151,3.151,0,0,1,.18-1.025,6.305,6.305,0,0,1,.456-1.024,9.579,9.579,0,0,1,.6-.941,5.883,5.883,0,0,1,.6-.72,5.779,5.779,0,0,1,1.329-1.079,3.838,3.838,0,0,1,1.606-.526,4.586,4.586,0,0,1,.166-.512.506.506,0,0,1,.388-.346l.277-.055a.979.979,0,0,0,.249-.083.156.156,0,0,1,.166-.014q.083.042.028.152a2.309,2.309,0,0,0-.29.775,5.059,5.059,0,0,0-.1,1.024,2.505,2.505,0,0,0,.291,1.274,1.072,1.072,0,0,0,1.011.5,2.014,2.014,0,0,0,1.3-.471,5.047,5.047,0,0,0,.969-1.024c.037-.092.1-.12.18-.083S210.523,435.607,210.449,435.68Zm-4.568.194a4.242,4.242,0,0,1-.083-.581c-.019-.222-.027-.434-.027-.637,0-.092-.037-.138-.111-.138a1.2,1.2,0,0,0-.637.207,3.553,3.553,0,0,0-.664.554,8.657,8.657,0,0,0-.665.789,9.908,9.908,0,0,0-.609.914,10.159,10.159,0,0,0-.651,1.315,3.154,3.154,0,0,0-.263,1.343.924.924,0,0,0,.069.36.306.306,0,0,0,.319.166,1.57,1.57,0,0,0,1.024-.526,8.261,8.261,0,0,0,1.052-1.232,9.93,9.93,0,0,0,.845-1.426A4.246,4.246,0,0,0,205.881,435.874Z" transform="translate(-130.123 -280.491)" fill="none" stroke="#fff" stroke-miterlimit="10" stroke-width="0.981"/>
    <path id="Path_920" data-name="Path 920" d="M202.825,395.655a3.044,3.044,0,0,1-.042.388q-.041.277-.083.609t-.083.664a4.458,4.458,0,0,0-.042.5.186.186,0,0,1-.138.055.158.158,0,0,1-.111-.055,2.448,2.448,0,0,0,.069-.388c.01-.111.014-.221.014-.332a.974.974,0,0,0-.456-.858,2.311,2.311,0,0,0-1.287-.3,4.06,4.06,0,0,0-1.2.194,4.153,4.153,0,0,0-1.274.692,9.047,9.047,0,0,0-1.356,1.329,15,15,0,0,0-1.454,2.1q-.415.72-1.024,1.855l-1.3,2.422q-.692,1.287-1.384,2.63t-1.273,2.505q.249,0,.831-.014t1.19-.014h1.8a.219.219,0,0,1,.083.277h-.554q-.443,0-1.052.014l-1.26.028q-.651.014-1.177.014-.914,1.772-1.924,3.557t-2.021,3.447q-1.011,1.661-1.993,3.087t-1.813,2.506a46.733,46.733,0,0,1-3.945,4.5,26.079,26.079,0,0,1-3.557,2.99,13.729,13.729,0,0,1-3.17,1.661,8.614,8.614,0,0,1-2.81.512,4.78,4.78,0,0,1-.844-.083,2.741,2.741,0,0,1-.886-.332,2.5,2.5,0,0,1-.761-.706,3.227,3.227,0,0,1-.5-1.2c0-.148.019-.212.056-.194a.31.31,0,0,1,.11.166,1.5,1.5,0,0,0,.222.512,2.519,2.519,0,0,0,.568.623,3.288,3.288,0,0,0,.928.512,3.787,3.787,0,0,0,1.329.208,10.408,10.408,0,0,0,2.7-.457,11.3,11.3,0,0,0,3.06-1.509,21.506,21.506,0,0,0,3.363-2.893A34.329,34.329,0,0,0,182,422.289q1-1.468,1.98-3.143t1.91-3.322q.928-1.647,1.744-3.17T189.12,410q-1.191.084-1.883.167a4.088,4.088,0,0,0-1.108.263,1.478,1.478,0,0,0-.65.526,8.643,8.643,0,0,0-.54.955l-.083-.028a5.445,5.445,0,0,1,.775-1.37,1.76,1.76,0,0,1,.72-.568q.222-.055.6-.111t.8-.083l.844-.056q.415-.027.72-.028,1.384-2.547,2.672-4.72t2.672-4.25q.748-1.135,1.606-2.2a17.338,17.338,0,0,1,1.744-1.883,9.266,9.266,0,0,1,1.758-1.3,3.454,3.454,0,0,1,1.675-.485,1.845,1.845,0,0,1,.969.249.7.7,0,0,1,.416.581" transform="translate(-107.465 -255.554)" fill="#fff"/>
    <path id="Path_921" data-name="Path 921" d="M202.825,395.655a3.044,3.044,0,0,1-.042.388q-.041.277-.083.609t-.083.664a4.458,4.458,0,0,0-.042.5.186.186,0,0,1-.138.055.158.158,0,0,1-.111-.055,2.448,2.448,0,0,0,.069-.388c.01-.111.014-.221.014-.332a.974.974,0,0,0-.456-.858,2.311,2.311,0,0,0-1.287-.3,4.06,4.06,0,0,0-1.2.194,4.153,4.153,0,0,0-1.274.692,9.047,9.047,0,0,0-1.356,1.329,15,15,0,0,0-1.454,2.1q-.415.72-1.024,1.855l-1.3,2.422q-.692,1.287-1.384,2.63t-1.273,2.505q.249,0,.831-.014t1.19-.014h1.8a.219.219,0,0,1,.083.277h-.554q-.443,0-1.052.014l-1.26.028q-.651.014-1.177.014-.914,1.772-1.924,3.557t-2.021,3.447q-1.011,1.661-1.993,3.087t-1.813,2.506a46.733,46.733,0,0,1-3.945,4.5,26.079,26.079,0,0,1-3.557,2.99,13.729,13.729,0,0,1-3.17,1.661,8.614,8.614,0,0,1-2.81.512,4.78,4.78,0,0,1-.844-.083,2.741,2.741,0,0,1-.886-.332,2.5,2.5,0,0,1-.761-.706,3.227,3.227,0,0,1-.5-1.2c0-.148.019-.212.056-.194a.31.31,0,0,1,.11.166,1.5,1.5,0,0,0,.222.512,2.519,2.519,0,0,0,.568.623,3.288,3.288,0,0,0,.928.512,3.787,3.787,0,0,0,1.329.208,10.408,10.408,0,0,0,2.7-.457,11.3,11.3,0,0,0,3.06-1.509,21.506,21.506,0,0,0,3.363-2.893A34.329,34.329,0,0,0,182,422.289q1-1.468,1.98-3.143t1.91-3.322q.928-1.647,1.744-3.17T189.12,410q-1.191.084-1.883.167a4.088,4.088,0,0,0-1.108.263,1.478,1.478,0,0,0-.65.526,8.643,8.643,0,0,0-.54.955l-.083-.028a5.445,5.445,0,0,1,.775-1.37,1.76,1.76,0,0,1,.72-.568q.222-.055.6-.111t.8-.083l.844-.056q.415-.027.72-.028,1.384-2.547,2.672-4.72t2.672-4.25q.748-1.135,1.606-2.2a17.338,17.338,0,0,1,1.744-1.883,9.266,9.266,0,0,1,1.758-1.3,3.454,3.454,0,0,1,1.675-.485,1.845,1.845,0,0,1,.969.249A.7.7,0,0,1,202.825,395.655Z" transform="translate(-107.465 -255.554)" fill="none" stroke="#fff" stroke-miterlimit="10" stroke-width="0.981"/>
    <path id="Path_922" data-name="Path 922" d="M284.673,416.45a.634.634,0,0,1-.686-.6l-.859-7.552h-4.677l-.859,7.552a.633.633,0,0,1-.686.6h-1.373a.554.554,0,0,1-.6-.686l4.248-31.626a.634.634,0,0,1,.687-.6h1.8a.634.634,0,0,1,.687.6l4.291,31.626a.555.555,0,0,1-.6.686Zm-3.9-28.193-1.974,17.594h3.991Z" transform="translate(-177.95 -248.248)" fill="#fff"/>
    <path id="Path_923" data-name="Path 923" d="M320.107,434.143c0,4.677-1.416,6.094-4.334,6.094-3.175,0-4.334-1.631-4.334-6.437v-3a5.855,5.855,0,0,1,1.33-4.162,4.026,4.026,0,0,1-.6-1.974,5.049,5.049,0,0,1,1.33-3.09c-1.116-.987-1.631-1.974-1.631-4.634V412.9c0-4.549,1.116-6.007,3.819-6.007a3.659,3.659,0,0,1,2.146.557h2.832a.569.569,0,0,1,.644.644v.3a.569.569,0,0,1-.644.644h-1.416a7.256,7.256,0,0,1,.858,3.862v4.034c0,4.162-1.5,5.493-3.991,5.493a4.906,4.906,0,0,1-1.159-.086,1.744,1.744,0,0,0-.686,1.416c0,.558.3,1.5,1.845,1.5,2.1,0,3.991.644,3.991,5.536Zm-2.575-3.3c0-2.661-.472-3.261-1.674-3.261-1.5,0-1.845.987-1.845,3.476v3.561c0,2.4.558,3.262,1.759,3.262s1.759-.859,1.759-3.262Zm0-18.323c0-2.4-.343-3.261-1.545-3.261s-1.545.859-1.545,3.261v4.378c0,2.4.343,3.261,1.545,3.261s1.545-.858,1.545-3.261Z" transform="translate(-201.582 -263.367)" fill="#fff"/>
    <path id="Path_924" data-name="Path 924" d="M344.442,431.647A.569.569,0,0,1,343.8,431V407.96a.569.569,0,0,1,.644-.644h.773a.667.667,0,0,1,.729.558l.257,1.416a3.3,3.3,0,0,1,2.875-2.274,2.3,2.3,0,0,1,1.03.214.631.631,0,0,1,.3.859l-.6,1.63a.573.573,0,0,1-.858.3,3.1,3.1,0,0,0-1.073-.214c-1.116,0-1.5.987-1.5,3.691V431a.569.569,0,0,1-.643.644Z" transform="translate(-222.527 -263.446)" fill="#fff"/>
    <path id="Path_925" data-name="Path 925" d="M366.9,388.038a1.931,1.931,0,1,1-1.931,1.931,1.923,1.923,0,0,1,1.931-1.931m-.644,31.325a.569.569,0,0,1-.643-.644V395.677a.569.569,0,0,1,.643-.644h1.288a.569.569,0,0,1,.644.644V418.72a.569.569,0,0,1-.644.644Z" transform="translate(-236.229 -251.162)" fill="#fff"/>
    <path id="Path_926" data-name="Path 926" d="M387.54,422.685a.569.569,0,0,1,.644-.644h1.287a.569.569,0,0,1,.644.644v4.162c0,4.077-1.8,5.064-4.12,5.064s-4.119-.987-4.119-5.064v-14.89c0-4.12,1.8-5.064,4.119-5.064s4.12.944,4.12,5.064v3.562a.569.569,0,0,1-.644.643h-1.287a.569.569,0,0,1-.644-.643v-3.862c0-1.673-.558-2.4-1.546-2.4s-1.545.729-1.545,2.4v15.491c0,1.673.558,2.4,1.545,2.4s1.546-.729,1.546-2.4Z" transform="translate(-247.173 -263.367)" fill="#fff"/>
    <path id="Path_927" data-name="Path 927" d="M418.988,432.2a.666.666,0,0,1-.729-.558L418,430.225a3.249,3.249,0,0,1-3,2.317c-2.146,0-2.832-1.845-2.832-6.437V408.512a.569.569,0,0,1,.644-.644H414.1a.569.569,0,0,1,.644.644v18.494c0,2.189.343,3.218,1.373,3.218.944,0,1.716-.815,1.716-3.69V408.512a.569.569,0,0,1,.644-.644h1.288a.569.569,0,0,1,.643.644v23.043a.569.569,0,0,1-.643.644Z" transform="translate(-266.778 -263.997)" fill="#fff"/>
    <rect id="Rectangle_377" data-name="Rectangle 377" width="2.575" height="32.87" rx="1.288" transform="translate(156.544 135.332)" fill="#fff"/>
    <path id="Path_928" data-name="Path 928" d="M463.054,420.7a.666.666,0,0,1-.558.729,10.607,10.607,0,0,1-1.244.086c-3.047,0-3.6-1.8-3.6-6.436V399.2H456.36a.569.569,0,0,1-.644-.644v-1.073a.569.569,0,0,1,.644-.644h1.288v-5.364a.569.569,0,0,1,.644-.644h1.287a.569.569,0,0,1,.644.644v5.364h2.145a.569.569,0,0,1,.643.644v1.073a.569.569,0,0,1-.643.644h-2.145v17.079c0,2.146.258,2.918,1.845,2.918h.3c.429,0,.687.214.687.6Z" transform="translate(-294.967 -252.974)" fill="#fff"/>
    <path id="Path_929" data-name="Path 929" d="M487.6,432.2a.666.666,0,0,1-.729-.558l-.258-1.416a3.249,3.249,0,0,1-3,2.317c-2.146,0-2.832-1.845-2.832-6.437V408.512a.569.569,0,0,1,.644-.644h1.288a.569.569,0,0,1,.644.644v18.494c0,2.189.343,3.218,1.373,3.218.944,0,1.716-.815,1.716-3.69V408.512a.569.569,0,0,1,.644-.644h1.287a.569.569,0,0,1,.643.644v23.043a.569.569,0,0,1-.643.644Z" transform="translate(-311.189 -263.997)" fill="#fff"/>
    <path id="Path_930" data-name="Path 930" d="M513.051,431.647a.569.569,0,0,1-.644-.644V407.96a.569.569,0,0,1,.644-.644h.773a.667.667,0,0,1,.729.558l.257,1.416a3.3,3.3,0,0,1,2.875-2.274,2.3,2.3,0,0,1,1.03.214.631.631,0,0,1,.3.859l-.6,1.63a.573.573,0,0,1-.858.3,3.1,3.1,0,0,0-1.073-.214c-1.116,0-1.5.987-1.5,3.691V431a.569.569,0,0,1-.643.644Z" transform="translate(-331.661 -263.446)" fill="#fff"/>
    <path id="Path_931" data-name="Path 931" d="M540.09,424.188a.569.569,0,0,1,.644-.644h1.287a.569.569,0,0,1,.643.644v2.661c0,4.077-1.8,5.063-4.12,5.063s-4.12-.987-4.12-5.063V411.958c0-4.119,1.8-5.063,4.12-5.063s4.12.944,4.12,5.063v7.767a.569.569,0,0,1-.643.644H537v6.78c0,1.673.558,2.4,1.545,2.4s1.546-.729,1.546-2.4Zm0-12.53c0-1.673-.558-2.4-1.546-2.4s-1.545.729-1.545,2.4v6.394h3.09Z" transform="translate(-345.912 -263.367)" fill="#fff"/>
    <path id="Path_932" data-name="Path 932" d="M574.462,412.152a3.729,3.729,0,1,1,3.729-3.729,3.657,3.657,0,0,1-3.729,3.729m0-6.859a3.13,3.13,0,1,0,3.13,3.13,3.07,3.07,0,0,0-3.13-3.13m.837,3.45.836,1.642h-.816l-.8-1.57h-.786v1.57h-.692v-4.07h1.787a1.193,1.193,0,0,1,1.332,1.229,1.157,1.157,0,0,1-.867,1.2m-.486-1.756h-1.074v1.157h1.074c.372,0,.651-.175.651-.578a.574.574,0,0,0-.651-.578" transform="translate(-369.413 -261.943)" fill="#fff"/>
  </g>
</svg>
