<svg xmlns="http://www.w3.org/2000/svg" xmlns:xlink="http://www.w3.org/1999/xlink" width="131.52" height="26.216" viewBox="0 0 131.52 26.216">
  <defs>
    <style>
      .cls-1 {
        fill: none;
      }

      .cls-2 {
        clip-path: url(#clip-path);
      }

      .cls-3 {
        fill: #000;
      }
    </style>
    <clipPath id="clip-path">
      <rect id="Rectangle_367" data-name="Rectangle 367" class="cls-1" width="131.52" height="26.216"/>
    </clipPath>
  </defs>
  <g id="Group_1817" data-name="Group 1817" class="cls-2">
    <path id="Path_838" data-name="Path 838" class="cls-3" d="M1.008,7.864A.122.122,0,0,1,.87,7.727V1.414H.137A.122.122,0,0,1,0,1.277V.983A.122.122,0,0,1,.137.846H2.171a.121.121,0,0,1,.137.137v.293a.121.121,0,0,1-.137.138H1.438V7.727a.121.121,0,0,1-.137.137Z" transform="translate(0 -0.658)"/>
    <path id="Path_839" data-name="Path 839" class="cls-3" d="M15.081,7.864a.122.122,0,0,1-.137-.137V4.566H13.917V7.727a.121.121,0,0,1-.137.137h-.293a.122.122,0,0,1-.137-.137V.983a.122.122,0,0,1,.137-.137h.293a.121.121,0,0,1,.137.137V4h1.026V.983a.122.122,0,0,1,.137-.137h.293a.121.121,0,0,1,.137.137V7.727a.121.121,0,0,1-.137.137Z" transform="translate(-10.38 -0.658)"/>
    <path id="Path_840" data-name="Path 840" class="cls-3" d="M27.456,7.864a.122.122,0,0,1-.137-.137V.983a.122.122,0,0,1,.137-.137h1.594a.121.121,0,0,1,.137.137v.293a.122.122,0,0,1-.137.138H27.887V4.044h1.1a.122.122,0,0,1,.137.137v.293a.122.122,0,0,1-.137.137h-1.1V7.3h1.164a.121.121,0,0,1,.137.137v.293a.121.121,0,0,1-.137.137Z" transform="translate(-21.243 -0.658)"/>
    <path id="Path_841" data-name="Path 841" class="cls-3" d="M48.239,20.846a.4.4,0,0,1-.433-.379L45.371.555A.35.35,0,0,1,45.75.122h.866A.376.376,0,0,1,47.022.5L48.78,18.194,50.566.5a.376.376,0,0,1,.406-.379h.866a.35.35,0,0,1,.379.433L49.808,20.467a.4.4,0,0,1-.433.379Z" transform="translate(-35.278 -0.095)"/>
    <path id="Path_842" data-name="Path 842" class="cls-3" d="M79.446,26.55c0-2.6,1.136-3.192,2.6-3.192s2.6.6,2.6,3.192v9.388c0,2.57-1.136,3.192-2.6,3.192s-2.6-.622-2.6-3.192Zm3.571-.189c0-1.055-.352-1.515-.974-1.515s-.974.46-.974,1.515v9.767c0,1.055.352,1.515.974,1.515s.974-.46.974-1.515Z" transform="translate(-61.778 -18.163)"/>
    <path id="Path_843" data-name="Path 843" class="cls-3" d="M109.983,4.5a1.217,1.217,0,1,1-1.218,1.217A1.212,1.212,0,0,1,109.983,4.5m-.406,19.75a.359.359,0,0,1-.406-.406V9.317a.359.359,0,0,1,.406-.406h.812a.359.359,0,0,1,.406.406V23.845a.359.359,0,0,1-.406.406Z" transform="translate(-84.576 -3.5)"/>
    <path id="Path_844" data-name="Path 844" class="cls-3" d="M129.245,33.313a.359.359,0,0,1,.406-.406h.812a.359.359,0,0,1,.406.406v2.624c0,2.57-1.136,3.192-2.6,3.192s-2.6-.622-2.6-3.192V26.549c0-2.6,1.136-3.192,2.6-3.192s2.6.6,2.6,3.192V28.8a.359.359,0,0,1-.406.406h-.812a.359.359,0,0,1-.406-.406V26.36c0-1.055-.352-1.515-.974-1.515s-.974.46-.974,1.515v9.767c0,1.055.352,1.515.974,1.515s.974-.46.974-1.515Z" transform="translate(-97.725 -18.163)"/>
    <path id="Path_845" data-name="Path 845" class="cls-3" d="M159.414,34.261a.359.359,0,0,1,.406-.406h.812a.359.359,0,0,1,.406.406v1.678c0,2.57-1.136,3.192-2.6,3.192s-2.6-.622-2.6-3.192V26.55c0-2.6,1.136-3.192,2.6-3.192s2.6.6,2.6,3.192v4.9a.359.359,0,0,1-.406.406h-3.165v4.275c0,1.055.351,1.515.974,1.515s.974-.46.974-1.515Zm0-7.9c0-1.055-.352-1.515-.974-1.515s-.974.46-.974,1.515v4.031h1.948Z" transform="translate(-121.185 -18.163)"/>
    <path id="Path_846" data-name="Path 846" class="cls-3" d="M206.481,51.283a3.542,3.542,0,0,1-.724.724,1.565,1.565,0,0,1-.969.323,1.261,1.261,0,0,1-.585-.148,1.13,1.13,0,0,1-.463-.445q-.122.279-.314.637a6.038,6.038,0,0,1-.454.716,4.454,4.454,0,0,1-.585.654,3.238,3.238,0,0,1-.689.489,1.353,1.353,0,0,1-.524.14q-.628,0-.628-.558a1.987,1.987,0,0,1,.113-.646,3.972,3.972,0,0,1,.288-.646,6.046,6.046,0,0,1,.375-.594,4.239,4.239,0,0,1,1.213-1.134,2.421,2.421,0,0,1,1.013-.332,2.833,2.833,0,0,1,.1-.323.319.319,0,0,1,.244-.218l.175-.035a.618.618,0,0,0,.157-.052.1.1,0,0,1,.1-.009q.052.026.017.1a1.457,1.457,0,0,0-.183.489,3.188,3.188,0,0,0-.061.646,1.578,1.578,0,0,0,.183.8.675.675,0,0,0,.637.314,1.271,1.271,0,0,0,.821-.3,3.186,3.186,0,0,0,.611-.646c.023-.058.061-.076.113-.052s.055.058.009.1m-2.88.122a2.646,2.646,0,0,1-.052-.366c-.012-.14-.018-.274-.018-.4,0-.058-.024-.087-.07-.087a.759.759,0,0,0-.4.131,2.24,2.24,0,0,0-.419.349,5.473,5.473,0,0,0-.419.5,6.255,6.255,0,0,0-.384.576,6.458,6.458,0,0,0-.41.829,1.988,1.988,0,0,0-.166.847.584.584,0,0,0,.043.227.193.193,0,0,0,.2.1.99.99,0,0,0,.646-.332,5.2,5.2,0,0,0,.663-.777,6.269,6.269,0,0,0,.533-.9,2.673,2.673,0,0,0,.253-.7" transform="translate(-155.946 -38.736)"/>
    <path id="Path_847" data-name="Path 847" class="cls-3" d="M204.289,49.323a.586.586,0,0,1,.264.063.547.547,0,0,1,.236.755l-.024.043a.989.989,0,0,0-.117.325,2.716,2.716,0,0,0-.051.547,1.114,1.114,0,0,0,.117.556c.013.023.041.071.213.071a.777.777,0,0,0,.512-.188,2.735,2.735,0,0,0,.5-.517.558.558,0,0,1,.495-.3.589.589,0,0,1,.241.053.545.545,0,0,1,.323.4.553.553,0,0,1-.136.466,4.059,4.059,0,0,1-.808.8,2.053,2.053,0,0,1-1.264.422,1.751,1.751,0,0,1-.81-.2q-.05-.025-.1-.054l-.023.042a6.556,6.556,0,0,1-.49.774,4.962,4.962,0,0,1-.649.726,3.743,3.743,0,0,1-.793.562l-.028.014a1.8,1.8,0,0,1-.724.182,1.007,1.007,0,0,1-1.119-1.049,2.485,2.485,0,0,1,.14-.805,4.477,4.477,0,0,1,.323-.725,6.57,6.57,0,0,1,.406-.641,4.2,4.2,0,0,1,.419-.506,4.139,4.139,0,0,1,.942-.764,2.928,2.928,0,0,1,.886-.347l.022-.06a.8.8,0,0,1,.606-.525l.166-.033.008,0L204,49.4A.593.593,0,0,1,204.289,49.323ZM203.1,51.4q-.01-.058-.019-.121-.043.041-.087.086a5,5,0,0,0-.38.452,5.782,5.782,0,0,0-.353.53,6,6,0,0,0-.38.768,1.817,1.817,0,0,0-.1.339l.038-.035a4.731,4.731,0,0,0,.6-.7,5.81,5.81,0,0,0,.491-.829A2.906,2.906,0,0,0,203.1,51.4Z" transform="translate(-155.946 -38.736)"/>
    <path id="Path_848" data-name="Path 848" class="cls-3" d="M188.737,11.811a1.919,1.919,0,0,1-.026.244q-.026.175-.052.384l-.052.419a2.805,2.805,0,0,0-.026.314.117.117,0,0,1-.087.035.1.1,0,0,1-.07-.035,1.544,1.544,0,0,0,.044-.244c.006-.07.009-.139.009-.209a.614.614,0,0,0-.288-.541,1.457,1.457,0,0,0-.812-.192,2.559,2.559,0,0,0-.759.122,2.619,2.619,0,0,0-.8.437,5.712,5.712,0,0,0-.855.838,9.464,9.464,0,0,0-.917,1.327q-.262.454-.646,1.17l-.82,1.527q-.436.812-.873,1.658t-.8,1.58q.157,0,.524-.009t.75-.009h1.135a.138.138,0,0,1,.052.175h-.349q-.28,0-.663.009l-.794.017q-.41.009-.742.009-.576,1.117-1.213,2.243t-1.274,2.173q-.637,1.047-1.257,1.946t-1.143,1.58a29.459,29.459,0,0,1-2.487,2.836,16.444,16.444,0,0,1-2.243,1.885,8.657,8.657,0,0,1-2,1.047,5.431,5.431,0,0,1-1.772.323,3.013,3.013,0,0,1-.532-.052,1.728,1.728,0,0,1-.559-.209,1.578,1.578,0,0,1-.48-.445,2.034,2.034,0,0,1-.314-.759c0-.093.012-.134.035-.122a.2.2,0,0,1,.07.1.944.944,0,0,0,.14.323,1.587,1.587,0,0,0,.358.393,2.072,2.072,0,0,0,.585.323,2.387,2.387,0,0,0,.838.131,6.562,6.562,0,0,0,1.7-.288,7.126,7.126,0,0,0,1.929-.951,13.558,13.558,0,0,0,2.121-1.824,21.639,21.639,0,0,0,2.3-2.889q.629-.925,1.248-1.981t1.2-2.095q.585-1.038,1.1-2t.934-1.676q-.751.053-1.187.1a2.576,2.576,0,0,0-.7.166.932.932,0,0,0-.41.332,5.452,5.452,0,0,0-.34.6l-.053-.017a3.433,3.433,0,0,1,.489-.864,1.11,1.11,0,0,1,.454-.358q.14-.035.375-.07t.506-.052l.532-.035q.262-.017.454-.017.872-1.606,1.684-2.976t1.684-2.679q.471-.716,1.013-1.388a10.932,10.932,0,0,1,1.1-1.187,5.841,5.841,0,0,1,1.108-.82,2.178,2.178,0,0,1,1.056-.306,1.163,1.163,0,0,1,.611.157.441.441,0,0,1,.262.367" transform="translate(-128.724 -8.777)"/>
    <path id="Path_849" data-name="Path 849" class="cls-3" d="M187.864,10.8a1.651,1.651,0,0,1,.863.227.907.907,0,0,1,.5.787,2.234,2.234,0,0,1-.032.318c-.016.109-.033.231-.051.372l-.052.419a2.293,2.293,0,0,0-.022.253v.2l-.142.143a.608.608,0,0,1-.436.18.588.588,0,0,1-.418-.18l-.195-.2.067-.268a1.052,1.052,0,0,0,.03-.165c0-.055.007-.11.007-.169a.13.13,0,0,0-.07-.133.984.984,0,0,0-.539-.109,2.083,2.083,0,0,0-.614.1,2.146,2.146,0,0,0-.65.357,5.254,5.254,0,0,0-.78.766,9.029,9.029,0,0,0-.868,1.257c-.173.3-.388.69-.636,1.153l-.821,1.528c-.3.55-.588,1.106-.869,1.651q-.228.442-.435.85c.159,0,.316,0,.47,0h1.271l.117.071a.626.626,0,0,1,.27.729l-.1.356h-.72c-.178,0-.391,0-.652.009h-.018l-.778.017-.453.007c-.345.661-.709,1.331-1.085,2-.425.752-.857,1.487-1.282,2.187s-.854,1.363-1.272,1.97-.8,1.139-1.158,1.6a30.108,30.108,0,0,1-2.532,2.887,17.01,17.01,0,0,1-2.311,1.941,9.182,9.182,0,0,1-2.114,1.105,5.943,5.943,0,0,1-1.932.35,3.517,3.517,0,0,1-.62-.06,2.227,2.227,0,0,1-.718-.268,2.072,2.072,0,0,1-.631-.581,2.524,2.524,0,0,1-.4-.941l-.012-.053V33.4a.538.538,0,0,1,.518-.615.51.51,0,0,1,.228.055.662.662,0,0,1,.3.361l.021.054.007.05a.754.754,0,0,0,.075.146,1.116,1.116,0,0,0,.249.268,1.6,1.6,0,0,0,.447.243,1.911,1.911,0,0,0,.66.1,6.112,6.112,0,0,0,1.569-.268,6.674,6.674,0,0,0,1.794-.888,13.138,13.138,0,0,0,2.042-1.759,21.261,21.261,0,0,0,2.242-2.823c.411-.605.825-1.263,1.231-1.954s.807-1.391,1.2-2.087c.381-.676.749-1.346,1.095-1.99q.249-.464.48-.879l-.242.027a2.077,2.077,0,0,0-.563.129.446.446,0,0,0-.2.157,5.013,5.013,0,0,0-.307.546l-.19.379-.961-.317.208-.49a3.861,3.861,0,0,1,.567-.99,1.555,1.555,0,0,1,.673-.506l.037-.011c.108-.027.246-.053.421-.079s.348-.044.547-.057l.531-.035.192-.011c.53-.969,1.053-1.891,1.558-2.743.544-.919,1.116-1.828,1.7-2.7.32-.486.67-.966,1.039-1.423a11.472,11.472,0,0,1,1.149-1.24,6.357,6.357,0,0,1,1.2-.888A2.671,2.671,0,0,1,187.864,10.8Z" transform="translate(-128.724 -8.777)"/>
    <path id="Path_850" data-name="Path 850" class="cls-3" d="M280.582,20.751a.4.4,0,0,1-.433-.379l-.541-4.762h-2.949l-.541,4.762a.4.4,0,0,1-.433.379h-.866a.349.349,0,0,1-.378-.433L277.119.379A.4.4,0,0,1,277.552,0h1.136a.4.4,0,0,1,.433.379l2.706,19.939a.35.35,0,0,1-.379.433ZM278.12,2.976l-1.245,11.093h2.516Z" transform="translate(-213.404)"/>
    <path id="Path_851" data-name="Path 851" class="cls-3" d="M316.414,40.537c0,2.949-.893,3.842-2.733,3.842-2,0-2.732-1.028-2.732-4.058V38.426a3.691,3.691,0,0,1,.839-2.624,2.539,2.539,0,0,1-.379-1.245,3.183,3.183,0,0,1,.839-1.948c-.7-.622-1.028-1.244-1.028-2.922V27.145c0-2.868.7-3.788,2.408-3.788a2.307,2.307,0,0,1,1.353.352h1.786a.359.359,0,0,1,.406.406V24.3a.359.359,0,0,1-.406.406h-.893a4.576,4.576,0,0,1,.541,2.435v2.543c0,2.624-.947,3.463-2.516,3.463a3.093,3.093,0,0,1-.731-.054,1.1,1.1,0,0,0-.433.893c0,.352.189.947,1.163.947,1.326,0,2.516.406,2.516,3.49Zm-1.623-2.083c0-1.678-.3-2.056-1.055-2.056-.947,0-1.163.622-1.163,2.191v2.245c0,1.515.352,2.056,1.109,2.056s1.109-.541,1.109-2.056Zm0-11.552c0-1.515-.216-2.056-.974-2.056s-.974.541-.974,2.056v2.76c0,1.515.216,2.056.974,2.056s.974-.541.974-2.056Z" transform="translate(-241.796 -18.163)"/>
    <path id="Path_852" data-name="Path 852" class="cls-3" d="M343.714,39.008a.359.359,0,0,1-.406-.406V24.074a.359.359,0,0,1,.406-.406h.487a.42.42,0,0,1,.46.352l.162.893a2.077,2.077,0,0,1,1.813-1.434,1.449,1.449,0,0,1,.649.135.4.4,0,0,1,.189.541l-.379,1.028a.361.361,0,0,1-.541.189,1.956,1.956,0,0,0-.676-.135c-.7,0-.947.622-.947,2.327V38.6a.359.359,0,0,1-.406.406Z" transform="translate(-266.959 -18.257)"/>
    <path id="Path_853" data-name="Path 853" class="cls-3" d="M365.693,4.5a1.217,1.217,0,1,1-1.217,1.217A1.212,1.212,0,0,1,365.693,4.5m-.406,19.75a.358.358,0,0,1-.405-.406V9.317a.358.358,0,0,1,.405-.406h.812a.359.359,0,0,1,.406.406V23.845a.359.359,0,0,1-.406.406Z" transform="translate(-283.419 -3.5)"/>
    <path id="Path_854" data-name="Path 854" class="cls-3" d="M384.956,33.313a.359.359,0,0,1,.406-.406h.811a.359.359,0,0,1,.406.406v2.624c0,2.57-1.136,3.192-2.6,3.192s-2.6-.622-2.6-3.192V26.549c0-2.6,1.137-3.192,2.6-3.192s2.6.6,2.6,3.192V28.8a.358.358,0,0,1-.406.406h-.811a.358.358,0,0,1-.406-.406V26.36c0-1.055-.352-1.515-.974-1.515s-.974.46-.974,1.515v9.767c0,1.055.352,1.515.974,1.515s.974-.46.974-1.515Z" transform="translate(-296.567 -18.163)"/>
    <path id="Path_855" data-name="Path 855" class="cls-3" d="M415.976,39.671a.42.42,0,0,1-.46-.352l-.162-.893a2.048,2.048,0,0,1-1.894,1.461c-1.353,0-1.786-1.163-1.786-4.058V24.737a.359.359,0,0,1,.406-.406h.812a.359.359,0,0,1,.406.406V36.4c0,1.38.216,2.029.866,2.029.6,0,1.082-.514,1.082-2.327V24.737a.359.359,0,0,1,.406-.406h.812a.359.359,0,0,1,.406.406V39.265a.359.359,0,0,1-.406.406Z" transform="translate(-320.121 -18.92)"/>
    <path id="Rectangle_366" data-name="Rectangle 366" class="cls-3" d="M.812,0h0a.812.812,0,0,1,.812.812v19.1a.811.811,0,0,1-.811.811h0A.812.812,0,0,1,0,19.912V.812A.812.812,0,0,1,.812,0Z" transform="translate(98.588 0.027)"/>
    <path id="Path_856" data-name="Path 856" class="cls-3" d="M459.852,26.13a.42.42,0,0,1-.352.46,6.685,6.685,0,0,1-.784.054c-1.921,0-2.273-1.136-2.273-4.058V12.576h-.812a.359.359,0,0,1-.406-.406v-.676a.359.359,0,0,1,.406-.406h.812V7.706a.359.359,0,0,1,.406-.406h.812a.359.359,0,0,1,.406.406v3.382h1.353a.359.359,0,0,1,.406.406v.676a.359.359,0,0,1-.406.406h-1.353V23.343c0,1.353.162,1.84,1.163,1.84h.189c.271,0,.433.135.433.379Z" transform="translate(-353.987 -5.677)"/>
    <path id="Path_857" data-name="Path 857" class="cls-3" d="M484.588,39.671a.42.42,0,0,1-.46-.352l-.162-.893a2.049,2.049,0,0,1-1.894,1.461c-1.353,0-1.786-1.163-1.786-4.058V24.737a.359.359,0,0,1,.406-.406h.812a.359.359,0,0,1,.406.406V36.4c0,1.38.216,2.029.865,2.029.6,0,1.082-.514,1.082-2.327V24.737a.359.359,0,0,1,.406-.406h.812a.359.359,0,0,1,.406.406V39.265a.359.359,0,0,1-.406.406Z" transform="translate(-373.474 -18.92)"/>
    <path id="Path_858" data-name="Path 858" class="cls-3" d="M512.322,39.008a.359.359,0,0,1-.406-.406V24.074a.359.359,0,0,1,.406-.406h.487a.42.42,0,0,1,.46.352l.162.893a2.077,2.077,0,0,1,1.812-1.434,1.449,1.449,0,0,1,.649.135.4.4,0,0,1,.189.541l-.379,1.028a.361.361,0,0,1-.541.189,1.956,1.956,0,0,0-.676-.135c-.7,0-.947.622-.947,2.327V38.6a.359.359,0,0,1-.406.406Z" transform="translate(-398.069 -18.257)"/>
    <path id="Path_859" data-name="Path 859" class="cls-3" d="M537.508,34.261a.359.359,0,0,1,.406-.406h.811a.359.359,0,0,1,.406.406v1.678c0,2.57-1.136,3.192-2.6,3.192s-2.6-.622-2.6-3.192V26.55c0-2.6,1.136-3.192,2.6-3.192s2.6.6,2.6,3.192v4.9a.359.359,0,0,1-.406.406h-3.165v4.275c0,1.055.352,1.515.974,1.515s.975-.46.975-1.515Zm0-7.9c0-1.055-.352-1.515-.975-1.515s-.974.46-.974,1.515v4.031h1.948Z" transform="translate(-415.192 -18.163)"/>
    <path id="Path_860" data-name="Path 860" class="cls-3" d="M572.594,25.859a2.351,2.351,0,1,1,2.351-2.351,2.306,2.306,0,0,1-2.351,2.351m0-4.324a1.973,1.973,0,1,0,1.973,1.973,1.936,1.936,0,0,0-1.973-1.973m.528,2.175.527,1.035h-.514l-.5-.99h-.5v.99H571.7V22.18h1.127a.752.752,0,0,1,.84.775.73.73,0,0,1-.547.755m-.306-1.107h-.678v.729h.678c.234,0,.41-.111.41-.365a.362.362,0,0,0-.41-.365" transform="translate(-443.425 -16.452)"/>
  </g>
</svg>
